<svg xmlns="http://www.w3.org/2000/svg" shape-rendering="geometricPrecision" text-rendering="geometricPrecision" image-rendering="optimizeQuality" fill-rule="evenodd" clip-rule="evenodd" viewBox="0 0 512 512.001"><path fill-rule="nonzero" d="M151.667 0h208.666c41.724 0 79.647 17.06 107.128 44.539C494.94 72.02 512 109.943 512 151.667v208.666c0 41.725-17.06 79.648-44.539 107.129-27.481 27.479-65.404 44.539-107.128 44.539H151.667c-41.724 0-79.647-17.06-107.128-44.539C17.06 439.981 0 402.058 0 360.333V151.667C0 109.943 17.06 72.02 44.539 44.539 72.02 17.06 109.943 0 151.667 0zm192.287 271.404c15.334-9.9 15.285-20.923 0-29.692l-122.965-85.619c-12.49-7.838-25.526-3.235-25.179 13.08l.491 172.248c1.074 17.687 11.167 22.538 26.06 14.358l121.593-84.375zm16.379-241.976H151.667c-33.601 0-64.159 13.757-86.321 35.918-22.161 22.162-35.918 52.72-35.918 86.321v208.666c0 33.602 13.757 64.16 35.918 86.322 22.162 22.161 52.72 35.918 86.321 35.918h208.666c33.601 0 64.159-13.757 86.321-35.918 22.161-22.162 35.918-52.72 35.918-86.322V151.667c0-33.601-13.757-64.159-35.918-86.321-22.162-22.161-52.72-35.918-86.321-35.918z"/></svg>