<svg xmlns="http://www.w3.org/2000/svg" shape-rendering="geometricPrecision" text-rendering="geometricPrecision" image-rendering="optimizeQuality" fill-rule="evenodd" clip-rule="evenodd" viewBox="0 0 512 512"><path d="M145.304 0h221.391C446.615 0 512 65.385 512 145.304v221.391C512 446.615 446.615 512 366.695 512H145.304C65.385 512 0 446.615 0 366.695V145.304C0 65.385 65.385 0 145.304 0zm35.929 173.162h149.534c4.917 0 8.931 4.097 8.931 8.93v147.816c0 4.833-4.094 8.93-8.931 8.93H181.233c-4.834 0-8.931-4.013-8.931-8.93V182.092c0-4.914 4.014-8.93 8.931-8.93z"/></svg>