<svg xmlns="http://www.w3.org/2000/svg" shape-rendering="geometricPrecision" text-rendering="geometricPrecision" image-rendering="optimizeQuality" fill-rule="evenodd" clip-rule="evenodd" viewBox="0 0 512 512.001"><path fill-rule="nonzero" d="M151.667 0h208.666c41.724 0 79.647 17.06 107.128 44.539C494.94 72.02 512 109.943 512 151.667v208.666c0 41.725-17.06 79.648-44.539 107.129-27.481 27.479-65.404 44.539-107.128 44.539H151.667c-41.724 0-79.647-17.06-107.128-44.539C17.06 439.981 0 402.058 0 360.333V151.667C0 109.943 17.06 72.02 44.539 44.539 72.02 17.06 109.943 0 151.667 0zm28.116 156.146h43.34c5.787 0 10.517 4.79 10.517 10.519v178.671c0 5.731-4.787 10.519-10.517 10.519h-43.34c-5.729 0-10.517-4.731-10.517-10.519V166.665c0-5.787 4.731-10.519 10.517-10.519zm109.089 0h43.344c5.787 0 10.518 4.779 10.518 10.519v178.671c0 5.739-4.779 10.519-10.518 10.519h-43.344c-5.74 0-10.518-4.731-10.518-10.519V166.665c0-5.787 4.73-10.519 10.518-10.519zm71.461-126.718H151.667c-33.601 0-64.159 13.757-86.321 35.918-22.161 22.162-35.918 52.72-35.918 86.321v208.666c0 33.602 13.757 64.16 35.918 86.322 22.162 22.161 52.72 35.918 86.321 35.918h208.666c33.601 0 64.159-13.757 86.321-35.918 22.161-22.162 35.918-52.72 35.918-86.322V151.667c0-33.601-13.757-64.159-35.918-86.321-22.162-22.161-52.72-35.918-86.321-35.918z"/></svg>