<svg xmlns="http://www.w3.org/2000/svg" shape-rendering="geometricPrecision" text-rendering="geometricPrecision" image-rendering="optimizeQuality" fill-rule="evenodd" clip-rule="evenodd" viewBox="0 0 512 512"><path fill-rule="nonzero" d="M256 0c70.413 0 134.42 28.798 180.811 75.188C483.203 121.579 512 185.587 512 256c0 70.413-28.797 134.42-75.189 180.811C390.42 483.203 326.413 512 256 512c-70.413 0-134.421-28.797-180.812-75.189C28.798 390.42 0 326.413 0 256c0-70.415 28.796-134.421 75.188-180.812C121.579 28.796 185.585 0 256 0zm108.463 271.242c9.88-8.808 9.615-16.644 0-25.562l-82.666-73.714c-10.758-6.743-21.981-2.785-21.682 11.262l.118 41.425-59.085-52.687c-10.758-6.743-21.981-2.785-21.682 11.262l.423 148.299c.92 15.229 9.614 19.405 22.437 12.358l58.099-51.792.112 39.434c.922 15.229 9.614 19.405 22.437 12.358l81.489-72.643zm51.546-175.251C374.936 54.918 318.293 29.421 256 29.421c-62.294 0-118.936 25.495-160.009 66.57-41.075 41.073-66.57 97.715-66.57 160.009 0 62.293 25.497 118.936 66.57 160.009 41.073 41.074 97.716 66.569 160.009 66.569 62.293 0 118.936-25.495 160.009-66.569 41.074-41.073 66.569-97.716 66.569-160.009 0-62.293-25.495-118.936-66.569-160.009z"/></svg>