<svg xmlns="http://www.w3.org/2000/svg" shape-rendering="geometricPrecision" text-rendering="geometricPrecision" image-rendering="optimizeQuality" fill-rule="evenodd" clip-rule="evenodd" viewBox="0 0 512 512.001"><path fill-rule="nonzero" d="M151.667 0h208.666c41.724 0 79.647 17.06 107.128 44.539C494.94 72.02 512 109.943 512 151.667v208.666c0 41.725-17.06 79.648-44.539 107.129-27.481 27.479-65.404 44.539-107.128 44.539H151.667c-41.724 0-79.647-17.06-107.128-44.539C17.06 439.981 0 402.058 0 360.333V151.667C0 109.943 17.06 72.02 44.539 44.539 72.02 17.06 109.943 0 151.667 0zm205.456 266.329c9.789-8.729 9.527-16.493 0-25.332l-81.918-73.046c-10.661-6.682-21.782-2.759-21.486 11.16l.117 41.049-58.55-52.209c-10.661-6.682-21.781-2.759-21.486 11.16l.419 146.958c.912 15.089 9.527 19.228 22.234 12.244l57.573-51.322.111 39.078c.914 15.089 9.527 19.228 22.234 12.244l80.752-71.984zm3.21-236.901H151.667c-33.601 0-64.159 13.757-86.321 35.918-22.161 22.162-35.918 52.72-35.918 86.321v208.666c0 33.602 13.757 64.16 35.918 86.322 22.162 22.161 52.72 35.918 86.321 35.918h208.666c33.601 0 64.159-13.757 86.321-35.918 22.161-22.162 35.918-52.72 35.918-86.322V151.667c0-33.601-13.757-64.159-35.918-86.321-22.162-22.161-52.72-35.918-86.321-35.918z"/></svg>