<svg xmlns="http://www.w3.org/2000/svg" shape-rendering="geometricPrecision" text-rendering="geometricPrecision" image-rendering="optimizeQuality" fill-rule="evenodd" clip-rule="evenodd" viewBox="0 0 512 512"><path fill="#FF5757" d="M256 0c140.803 0 256 115.197 256 256S396.803 512 256 512 0 396.803 0 256 115.197 0 256 0z"/><path fill="#CF4646" fill-rule="nonzero" d="M203.216 211.394c-4.234-.18-7.244-1.592-8.982-4.231-4.717-7.069 1.723-14.056 6.182-18.971 12.677-13.902 43.719-47.321 49.976-54.682 4.736-5.235 11.486-5.235 16.219 0 6.462 7.548 39.073 42.491 51.117 56.011 4.179 4.706 9.349 11.127 4.995 17.642-1.779 2.639-4.751 4.051-8.99 4.231h-25.721v63.57c0 6.788-5.568 12.363-12.36 12.363h-34.348c-6.791 0-12.359-5.564-12.359-12.363v-63.57h-25.729zm-77.738 64.484c-1.415-5.845.97-10.435 4.778-13.157a13.354 13.354 0 014.579-2.078c1.64-.397 3.351-.49 5.005-.255 4.639.667 8.866 3.658 10.293 9.521a365.997 365.997 0 012.46 10.899l1.943 9.578c2.539 12.812 4.422 20.851 9.154 24.853 5.002 4.234 14.479 5.698 32.637 5.698h127.542c16.758 0 25.508-1.606 30.105-5.762 4.433-4.006 6.171-11.846 8.421-23.876l.123-.621c1.18-6.35 2.475-13.213 4.302-20.769 1.427-5.859 5.65-8.854 10.293-9.521a13.38 13.38 0 015.006.255 13.356 13.356 0 014.579 2.078c3.808 2.711 6.192 7.301 4.777 13.153-1.666 6.889-2.947 13.722-4.118 19.997l-.068.363c-3.287 17.578-6.016 29.668-15.062 38.167-8.956 8.417-22.989 11.981-48.358 11.981H196.327c-26.53 0-41.113-3.194-50.492-11.502-9.615-8.518-12.528-20.877-16.238-39.623l-1.969-9.78a330.363 330.363 0 00-2.15-9.599z"/><path fill="#fff" fill-rule="nonzero" d="M198.263 206.44c-4.235-.179-7.245-1.591-8.982-4.231-4.718-7.068 1.722-14.055 6.181-18.971 12.678-13.901 43.72-47.321 49.976-54.682 4.736-5.234 11.487-5.234 16.219 0 6.462 7.548 39.073 42.492 51.118 56.011 4.178 4.707 9.349 11.128 4.995 17.642-1.779 2.64-4.752 4.052-8.99 4.231h-25.722v63.571c0 6.788-5.567 12.363-12.359 12.363h-34.348c-6.791 0-12.359-5.564-12.359-12.363V206.44h-25.729zm-77.738 64.484c-1.415-5.844.969-10.435 4.777-13.156a13.352 13.352 0 014.579-2.078 13.35 13.35 0 015.006-.255c4.639.666 8.866 3.658 10.293 9.521a362.674 362.674 0 012.459 10.899l1.943 9.577c2.539 12.813 4.422 20.851 9.155 24.853 5.002 4.235 14.478 5.699 32.637 5.699h127.541c16.759 0 25.509-1.606 30.106-5.762 4.433-4.006 6.17-11.846 8.42-23.876l.124-.622c1.18-6.35 2.475-13.212 4.302-20.768 1.427-5.859 5.65-8.855 10.293-9.521a13.354 13.354 0 015.005.255c1.629.393 3.205 1.1 4.579 2.078 3.808 2.71 6.193 7.301 4.778 13.152-1.667 6.889-2.947 13.722-4.119 19.998l-.067.363c-3.287 17.578-6.017 29.668-15.062 38.167-8.956 8.416-22.989 11.981-48.359 11.981H191.374c-26.531 0-41.114-3.194-50.493-11.502-9.615-8.518-12.527-20.877-16.238-39.624l-1.969-9.779a334.588 334.588 0 00-2.149-9.6z"/></svg>